<?xml version="1.0" encoding="UTF-8"?>
<!-- Generator: Adobe Illustrator 19.0.0, SVG Export Plug-In . SVG Version: 6.00 Build 0)  -->
<svg version="1.1" id="Camada_1" xmlns="http://www.w3.org/2000/svg" xmlns:xlink="http://www.w3.org/1999/xlink" x="0px" y="0px" width="249px" height="77px" viewBox="0 0 249 77" style="enable-background:new 0 0 249 77;" xml:space="preserve">
<style type="text/css">
	.st0{fill-rule:evenodd;clip-rule:evenodd;fill:#20284E;}
	.st1{fill-rule:evenodd;clip-rule:evenodd;fill:#E63723;}
	.st2{fill:#20284E;}
</style>
<g id="XMLID_33_">
	<path id="XMLID_41_" class="st0" d="M0,75.9h11.2L39,27.1c1.4-3,1.6-5.5-0.2-8.5l-3-4.9L0,75.9z"/>
	<path id="XMLID_40_" class="st0" d="M16.5,75.9h11.7l20.2-35.8c1.4-2.4,1-4.5-0.3-7.1l-3.5-5.5L16.5,75.9z"/>
	<path id="XMLID_37_" class="st1" d="M72.7,47.4H61L34.3,0.3l7.3,0c2.6,0,4.2,1.3,6.3,4.3L72.7,47.4z M89.2,47.4H78l-23.9-42L62,5.7   c2.1,0,3.3,0.8,4.9,3L89.2,47.4z"/>
	<path id="XMLID_34_" class="st0" d="M41.3,61.5l5.8-10l54.6,0.4l-3.4,5.9c-1.3,3-4.4,3.7-6.9,3.6L41.3,61.5z M33.1,75.7l5.6-9.7   l54.9,0.3L90,72.1c-1.5,2-4.6,3.7-7.3,3.6L33.1,75.7z"/>
</g>
<g id="XMLID_2_">
	<path id="XMLID_30_" class="st0" d="M125.1,7.5v34.6l5.4,0.1c4.1,0.1,7-1.5,9.3-4.4c2.3-2.9,4.1-8.3,4.1-13.2c0-4.6-0.6-9.3-2.9-12   c-2.3-2.7-5.5-5.9-11.8-5.4L125.1,7.5z M115.8,49.6V0.9l13-0.8c16.9-1.1,23.9,8.8,23.9,24.6c0,7.6-2,13.6-6.1,18.2   s-9.4,6.8-16.1,6.8H115.8z"/>
	<path id="XMLID_27_" class="st0" d="M175.5,28.1c0-5-2.2-7.4-5.8-7.9c-1.6-0.2-3.8,1-4.8,2.8c-1,1.5-1.4,3-1.6,5.1H175.5z    M183.7,34.5h-20.5c0.3,5.1,3.7,7.9,8.8,8.3c2.9,0.3,4.7-0.1,9-1.7l1.2,6.5c-4.3,1.3-6.4,1.9-11,1.9c-5.1,0-9.3-1.3-12.1-4.4   c-2.8-3.1-4.8-7.3-4.8-12.9c0-5.8,1.3-9.9,4.3-13.3c3-3.4,6.3-5,10.8-5c4.6,0,8.4,1.2,10.9,4.2c2.5,3,3.9,7.5,3.6,12.6L183.7,34.5z   "/>
	<rect id="XMLID_26_" x="188" y="3.7" class="st2" width="9" height="45.1"/>
	<path id="XMLID_25_" class="st2" d="M216.2,48.8c-2.3,0.6-3.7,0.8-6.5,0.8c-6.6,0-9.7-5.1-9.7-11V14.7l0-6.5l9-2.7v9h7.7V21H209   v16.1c0,3.6,1.6,5,4.1,5c1,0,1.5,0,3-0.5L216.2,48.8z"/>
	<path id="XMLID_22_" class="st0" d="M235.6,35v-3c-2,0.3-3.8,0.2-5.8,0.8c-2.9,0.8-4,2.7-4,5.4c0,1.2,0.4,2.7,1.1,3.5   c0.7,0.8,1.9,1.3,3.1,1.3c1.8,0,3.4-0.8,4.5-2.2C235.6,39.4,235.6,37.1,235.6,35z M245.1,48.9h-8.3l-0.5-3.6   c-3.7,3.5-5.4,3.7-9,4.2c-2.8,0.4-6.2-1.3-7.8-3.2c-1.7-1.9-2.6-4.1-2.6-7.3c0-6.8,6.3-11.7,11.1-12.1l7.4-0.7   c-0.1-5.1-2-5-4.3-5.8c-1.8-0.7-6.3,0.5-10,2l-1.9-5.7c1.3-0.8,4.3-1.6,6.5-2.3c2.2-0.6,3.6-0.6,5.4-0.6c8.4,0,12.9,3.7,13.3,14.6   C244.6,35.2,244.6,43.5,245.1,48.9z"/>
	<path id="XMLID_21_" class="st2" d="M127.9,76.4c-1.6,0.4-2.6,0.6-4.5,0.6c-2.3,0-4.1-1.2-5.5-2.8c-1.4-1.6-2.1-3.7-2.1-6.3   c0-3,0.8-5.3,2.3-7c1.5-1.7,3.5-2.9,6-2.9c1.8,0,3.5,0.1,4.3,0.6l-0.7,3.5c-1.2-0.4-2.1-0.5-3.3-0.5c-1.3,0-2.3,1.2-3.1,2   c-0.8,0.9-0.8,2.2-0.8,3.8c0,1.5,0.3,3.2,1,4c0.8,0.9,2,1.6,3.2,1.6c1.1,0,1.6,0.1,3-0.5L127.9,76.4z"/>
	<path id="XMLID_18_" class="st0" d="M136.9,61.3c-2-0.1-2.5,1.7-2.8,2.4c-0.3,1-0.5,2.1-0.5,3.8c0,3.4,1,6.2,3.2,6.2   c2,0,3.1-2.8,3.1-6.3C139.9,64,138.9,61.5,136.9,61.3z M136.7,76.8c-2.3,0-4.1-0.8-5.5-2.5c-1.3-1.7-2-3.9-2-6.8c0-3,0.7-5.3,2-6.9   c1.4-1.7,3.2-2.5,5.6-2.5c2.3,0,4.1,0.8,5.4,2.5c1.3,1.7,2,3.9,2,6.6c0,3-0.7,5.3-2,7C140.9,76,139,76.8,136.7,76.8z"/>
	<path id="XMLID_17_" class="st2" d="M161,76.3l-4.5,0v-9.8c0-1.7,0-4.6-2.8-4.6c-0.8,0-1.9,0.5-2.4,1.3c-0.5,0.7-0.8,2-0.8,3.1v10   l-4.4,0V58.8l3.7-0.1L150,61c0.7-0.7,1.5-2.9,6.1-2.9c3.4,0,4.8,3.8,4.8,7.4V76.3z"/>
	<path id="XMLID_16_" class="st2" d="M171.9,76.5c-1,0.2-2.2,0.3-3.5,0.3c-3,0-4.5-2.1-4.5-5.9l-0.1-9h-2.2l0-3.2h2.3l0.1-3l4.3-1.5   l0.2,4.5h3.8V62h-3.8v8.3c0,1.8,0.6,2.8,1.7,2.8c0.5,0,1.3,0.1,1.8-0.1V76.5z"/>
	<path id="XMLID_13_" class="st0" d="M181.7,69.7l0.1-2.2l-3,0.5c-3.3,0.5-3,5.6-0.1,5.5C181.1,73.6,181.6,71.8,181.7,69.7z    M186.2,76.2l-4,0l-0.2-1.5c-0.2,0-1.5,2.1-4.8,2.1c-1.5,0-2.9-0.7-3.8-1.7c-0.9-1-1.3-2.3-1.3-3.9c0-3.4,1.8-5.5,5.4-6.2   c1.5-0.3,2.5-0.4,4.2-0.3c0-1.9-0.6-3.5-2.4-3.5c-1.8,0-3,0.2-5.1,1.2l-0.9-3c0.7-0.4,1.9-0.8,3-1.1c1.2-0.3,2.3-0.2,3.3-0.2   c4.4,0,6.7,2.5,6.7,7.5V76.2z"/>
	<path id="XMLID_10_" class="st0" d="M192.9,76.3h-4.4V58.7h4.4V76.3z M190.7,56.7c-0.7,0-1.2-0.3-1.6-0.8c-0.4-0.5-0.6-1.1-0.6-1.8   s0.2-1.3,0.6-1.8c0.4-0.5,0.9-0.7,1.6-0.7c0.7,0,1.2,0.3,1.6,0.7c0.4,0.5,0.6,1.1,0.6,1.8s-0.2,1.4-0.6,1.9   C191.9,56.5,191.3,56.7,190.7,56.7z"/>
	<path id="XMLID_7_" class="st0" d="M222.1,65.8c0-2.5-1.1-4.6-2.9-4.6c-0.8,0-1.5,0.7-2.1,1.4c-0.5,0.8-0.8,2.1-0.9,3.2H222.1z    M226.3,69.1h-10.2c0.2,2.6,1.9,4.5,4.6,4.5c1.7,0,2.2,0,4.2-0.7l0.6,3c-1.8,0.6-3.7,0.8-6,0.8c-2.5,0-4.4-0.8-5.8-2.4   c-1.4-1.6-2-3.8-2-6.6c0-3,0.8-5.3,2.2-7c1.5-1.8,3.3-2.6,5.5-2.6c2.3,0,4,0.8,5.2,2.3c1.3,1.5,2,3.6,1.8,6.3L226.3,69.1z"/>
	<path id="XMLID_6_" class="st2" d="M236.8,62.1c-0.5-0.4-1.1-0.1-2,0c-0.9,0.1-1.7,0.9-2.2,1.7c-0.5,0.8-0.8,2.1-0.7,3.5l0.1,9   h-4.5l-0.1-17.6h3.9l0.1,3l0.3,0c0.6-2.2,2.7-3.8,5.1-3.6V62.1z"/>
	<path id="XMLID_5_" class="st2" d="M237.1,75.8l0.9-3.4c0.8,0.5,1.4,0.6,2.1,0.9c0.7,0.3,1.8,0.3,2.4,0.3c0.8,0,1.2-0.3,1.6-0.6   c0.5-0.3,0.5-1.1,0.5-1.6c0-0.3-0.2-0.6-0.4-0.8c-0.2-0.2-0.4-0.4-0.7-0.6c-0.3-0.2-0.7-0.4-1-0.5c-0.4-0.1-0.8-0.3-1.2-0.5   c-0.5-0.3-0.9-0.5-1.3-0.8c-0.4-0.3-0.9-0.6-1.2-1c-0.3-0.4-0.7-0.9-0.8-1.4c-0.2-0.5-0.5-1.2-0.5-2c0-1,0.3-2,0.6-2.7   c0.3-0.7,1-1.2,1.6-1.6c0.5-0.5,1.2-0.8,2-1c0.7-0.2,1.5-0.3,2.3-0.3c0.6,0,1.3,0,1.9,0.2c0.6,0.1,1.9,0.5,2.5,0.7l-1,3.3   c-0.4-0.3-3-1.7-4.8-0.4c-0.6,0.4-0.7,0.8-0.6,1.2c0,0.4,0.1,0.8,0.3,1.1c0.2,0.3,0.4,0.5,0.7,0.6c0.3,0.2,0.5,0.3,0.9,0.5l1,0.4   c0.6,0.3,1.1,0.5,1.6,0.8c0.5,0.3,0.8,0.7,1.2,1.1c0.3,0.4,0.8,0.8,0.9,1.4c0.2,0.5,0.5,1.7,0.5,2.4c0,1-0.3,1.9-0.6,2.6   c-0.4,0.8-1,1.3-1.6,1.8c-0.6,0.5-1.5,0.7-2.3,0.9c-0.8,0.2-1.5,0.2-2.4,0.2C240.5,76.8,238.4,76.4,237.1,75.8z"/>
	<path id="XMLID_4_" class="st1" d="M152.8,34.2c0.7,8.3,3.8,13.3,9.2,15.3h-22.8C146,47.5,151,43.1,152.8,34.2z"/>
	<path id="XMLID_3_" class="st2" d="M209.9,76.3l-4.5,0v-9.8c0-1.7,0-4.6-2.8-4.6c-0.8,0-1.8,0.5-2.4,1.3c-0.5,0.7-0.8,2-0.8,3.1v10   l-4.4,0V58.8l3.7-0.1L199,61c0.7-0.7,1.5-2.9,6-2.9c3.4,0,4.8,3.8,4.8,7.4V76.3z"/>
</g>
</svg>